<svg width="39" height="29" viewBox="0 0 39 29" fill="none" xmlns="http://www.w3.org/2000/svg">
    <path d="M11.2142 27.5306C9.81403 26.1304 9.81403 23.8604 11.2142 22.4603L32.1399 1.53447C33.5401 0.134342 35.8101 0.134344 37.2103 1.53447C38.6104 2.9346 38.6104 5.20466 37.2103 6.60478L16.2845 27.5306C14.8843 28.9307 12.6143 28.9307 11.2142 27.5306Z" fill="transparent"/>
    <path d="M15.8899 27.0735C14.4898 28.4737 12.2198 28.4737 10.8196 27.0735L1.53447 17.7884C0.134343 16.3883 0.134343 14.1182 1.53447 12.7181C2.9346 11.3179 5.20466 11.3179 6.60478 12.7181L15.8899 22.0032C17.2901 23.4033 17.2901 25.6734 15.8899 27.0735Z" fill="transparent"/>
</svg>
