<svg width="800" height="800" viewBox="0 0 800 800" fill="none" xmlns="http://www.w3.org/2000/svg">
    <path fill-rule="evenodd" clip-rule="evenodd" d="M754.563 498.921C785.459 463.965 801.683 418.469 799.863 371.878V364.274C793.275 291.315 766.763 221.562 723.215 162.615C679.671 103.667 620.759 57.7863 552.899 29.9718C485.043 2.15737 410.843 -6.52364 338.386 4.87464C265.929 16.2729 197.994 47.3131 141.984 94.6131C85.9742 141.913 44.0374 203.659 20.7439 273.121C-2.54969 342.583 -6.30671 417.097 9.88221 488.545C26.0712 559.993 61.585 625.633 112.554 678.313C163.523 730.993 227.992 768.693 298.936 787.301C351.811 796.837 405.519 800.993 459.231 799.709H505.319C520.351 799.709 534.699 791.913 544.755 780.753C554.815 769.589 560.219 755.009 559.863 740.001C559.863 724.077 553.527 708.809 542.255 697.549C530.983 686.293 515.803 680.001 499.863 680.001C483.919 680.001 468.075 673.317 456.803 662.061C445.527 650.801 439.195 635.533 439.195 619.613C439.195 603.689 445.527 588.421 456.803 577.161C468.075 565.905 483.363 559.577 499.307 559.577H633.955C680.471 555.601 723.663 533.877 754.563 498.921ZM479.863 139.709C479.863 172.846 452.999 199.709 419.863 199.709C386.725 199.709 359.862 172.846 359.862 139.709C359.862 106.571 386.725 79.7087 419.863 79.7087C452.999 79.7087 479.863 106.571 479.863 139.709ZM219.862 279.709C252.999 279.709 279.862 252.846 279.862 219.709C279.862 186.571 252.999 159.709 219.862 159.709C186.725 159.709 159.862 186.571 159.862 219.709C159.862 252.846 186.725 279.709 219.862 279.709ZM179.862 479.709C212.999 479.709 239.862 452.845 239.862 419.709C239.862 386.571 212.999 359.709 179.862 359.709C146.725 359.709 119.862 386.571 119.862 419.709C119.862 452.845 146.725 479.709 179.862 479.709ZM579.863 319.709C612.999 319.709 639.863 292.846 639.863 259.709C639.863 226.571 612.999 199.709 579.863 199.709C546.723 199.709 519.863 226.571 519.863 259.709C519.863 292.846 546.723 319.709 579.863 319.709Z" fill="red"/>
</svg>
