<svg width="28" height="28" viewBox="0 0 28 28" fill="none" xmlns="http://www.w3.org/2000/svg">
    <path fill-rule="evenodd" clip-rule="evenodd" d="M26.4097 17.4636C27.491 16.2401 28.0589 14.6476 27.9952 13.0168V12.7506C27.7646 10.1968 26.8367 7.75529 25.3125 5.69196C23.7885 3.62862 21.7265 2.02268 19.3514 1.04909C16.9765 0.0755139 14.3795 -0.228345 11.8435 0.170626C9.3075 0.569597 6.92979 1.65609 4.96944 3.31172C3.00909 4.96736 1.54131 7.12862 0.726037 9.55999C-0.0892391 11.9914 -0.220735 14.5996 0.345877 17.1004C0.91249 19.6013 2.15547 21.8989 3.93939 23.7428C5.7233 25.5868 7.97972 26.9064 10.4628 27.5577C12.3134 27.8915 14.1931 28.037 16.0731 27.992H17.6861C18.2123 27.992 18.7144 27.7192 19.0664 27.3285C19.4185 26.9378 19.6076 26.4274 19.5952 25.9021C19.5952 25.3447 19.3734 24.8103 18.9789 24.4162C18.5844 24.0222 18.0531 23.8019 17.4952 23.8019C16.9371 23.8019 16.3826 23.568 15.9881 23.174C15.5934 22.7798 15.3718 22.2454 15.3718 21.6882C15.3718 21.1308 15.5934 20.5964 15.9881 20.2022C16.3826 19.8083 16.9177 19.5868 17.4757 19.5868H22.1884C23.8165 19.4476 25.3282 18.6872 26.4097 17.4636ZM16.7952 4.89019C16.7952 6.05008 15.8549 6.99036 14.6952 6.99036C13.5354 6.99036 12.5951 6.05008 12.5951 4.89019C12.5951 3.7303 13.5354 2.79002 14.6952 2.79002C15.8549 2.79002 16.7952 3.7303 16.7952 4.89019ZM7.69515 9.79058C8.85495 9.79058 9.79515 8.8503 9.79515 7.69041C9.79515 6.53052 8.85495 5.59024 7.69515 5.59024C6.53537 5.59024 5.59516 6.53052 5.59516 7.69041C5.59516 8.8503 6.53537 9.79058 7.69515 9.79058ZM6.29516 16.7912C7.45496 16.7912 8.39515 15.8508 8.39515 14.691C8.39515 13.5311 7.45496 12.5908 6.29516 12.5908C5.13537 12.5908 4.19516 13.5311 4.19516 14.691C4.19516 15.8508 5.13537 16.7912 6.29516 16.7912ZM20.2952 11.1907C21.4549 11.1907 22.3952 10.2504 22.3952 9.09052C22.3952 7.93063 21.4549 6.99036 20.2952 6.99036C19.1353 6.99036 18.1952 7.93063 18.1952 9.09052C18.1952 10.2504 19.1353 11.1907 20.2952 11.1907Z" fill="#1890FF"/>
</svg>
