<svg width="92" height="54" viewBox="0 0 92 54" fill="none" xmlns="http://www.w3.org/2000/svg">
    <path d="M91.275 24.8C90.575 23.8 74.375 0 45.975 0C17.575 0 1.375 23.8 0.675 24.8C-0.225 26.1 -0.225 27.9 0.675 29.3C1.375 30.2 17.575 54 45.975 54C74.375 54 90.575 30.2 91.275 29.2C92.175 27.9 92.175 26.1 91.275 24.8ZM45.975 46C26.675 46 13.475 32.4 8.975 27C13.475 21.5 26.575 8 45.975 8C65.275 8 78.475 21.6 82.975 27C78.375 32.5 65.275 46 45.975 46ZM48.275 10.6C43.875 10 39.575 11.1 35.975 13.8C28.675 19.3 27.175 29.7 32.675 37C35.375 40.6 39.175 42.8 43.575 43.5C44.375 43.6 45.175 43.7 45.875 43.7C49.475 43.7 52.875 42.5 55.775 40.4C63.075 34.9 64.575 24.5 59.075 17.2C56.575 13.5 52.675 11.2 48.275 10.6ZM52.275 35.5C50.075 37.2 47.275 37.9 44.475 37.5C41.675 37.1 39.175 35.6 37.475 33.4C34.075 28.7 34.975 22 39.675 18.5C41.875 16.8 44.675 16.1 47.475 16.5C50.275 16.9 52.775 18.4 54.475 20.6C57.875 25.3 56.975 32 52.275 35.5Z" fill="transparent"/>
</svg>
